<svg width="864" height="352" viewBox="0 0 864 352" fill="none" xmlns="http://www.w3.org/2000/svg">
<path d="M1 7.99999C1 4.134 4.13401 1 8 1H856C859.866 1 863 4.13401 863 8V344C863 347.866 859.866 351 856 351H8.00002C4.13402 351 1 347.866 1 344V7.99999Z" fill="white"/>
<path d="M1 7.99999C1 4.134 4.13401 1 8 1H856C859.866 1 863 4.13401 863 8V344C863 347.866 859.866 351 856 351H8.00002C4.13402 351 1 347.866 1 344V7.99999Z" stroke="#DCDFE0" stroke-width="2"/>
<path d="M327.296 193.199C327.759 193.087 328.241 193.087 328.704 193.199L543.657 245.084C546.718 245.823 546.718 250.177 543.657 250.916L328.704 302.801C328.241 302.913 327.759 302.913 327.296 302.801L112.343 250.916C109.282 250.177 109.282 245.823 112.343 245.084L327.296 193.199Z" fill="white" stroke="#DCDFE0" stroke-width="2"/>
<path d="M327.061 144.227C327.678 144.078 328.322 144.078 328.939 144.227L543.891 196.112C547.973 197.097 547.973 202.903 543.891 203.888L328.939 255.773C328.322 255.922 327.678 255.922 327.061 255.773L112.109 203.888C108.027 202.903 108.027 197.097 112.109 196.112L327.061 144.227Z" fill="#F1F2F3"/>
<path d="M315.546 99.0061L323.223 97.1531L323.458 98.1251L327.296 97.1986C327.759 97.087 328.241 97.087 328.704 97.1986L332.542 98.1252L332.777 97.1531L340.454 99.0061L340.219 99.9782L347.896 101.831L348.131 100.859L355.808 102.712L355.573 103.684L363.25 105.537L363.485 104.565L371.161 106.418L370.927 107.39L378.604 109.243L378.838 108.271L386.515 110.124L386.281 111.096L393.957 112.949L394.192 111.977L401.869 113.83L401.634 114.803L409.311 116.656L409.546 115.683L417.223 117.537L416.988 118.509L424.665 120.362L424.9 119.39L432.576 121.243L432.342 122.215L440.019 124.068L440.253 123.096L447.93 124.949L447.696 125.921L455.372 127.774L455.607 126.802L463.284 128.655L463.049 129.627L470.726 131.48L470.961 130.508L478.638 132.361L478.403 133.333L486.08 135.186L486.315 134.214L493.992 136.067L493.757 137.039L501.434 138.892L501.668 137.92L509.345 139.773L509.111 140.745L516.788 142.598L517.022 141.626L524.699 143.479L524.464 144.451L532.141 146.304L532.376 145.332L540.053 147.185L539.818 148.157L543.657 149.084C544.412 149.266 544.958 149.651 545.327 150.124L546.115 149.509C547.232 150.94 547.232 153.06 546.115 154.491L545.327 153.876C544.958 154.349 544.412 154.734 543.657 154.916L539.818 155.843L540.053 156.815L532.376 158.668L532.141 157.696L524.464 159.549L524.699 160.521L517.022 162.374L516.788 161.402L509.111 163.255L509.345 164.227L501.668 166.08L501.434 165.108L493.757 166.961L493.992 167.933L486.315 169.786L486.08 168.814L478.403 170.667L478.638 171.639L470.961 173.492L470.726 172.52L463.049 174.373L463.284 175.345L455.607 177.198L455.372 176.226L447.696 178.079L447.93 179.051L440.253 180.904L440.019 179.932L432.342 181.785L432.576 182.757L424.9 184.61L424.665 183.638L416.988 185.491L417.223 186.463L409.546 188.317L409.311 187.344L401.634 189.197L401.869 190.17L394.192 192.023L393.957 191.051L386.281 192.904L386.515 193.876L378.838 195.729L378.604 194.757L370.927 196.61L371.161 197.582L363.485 199.435L363.25 198.463L355.573 200.316L355.808 201.288L348.131 203.141L347.896 202.169L340.219 204.022L340.454 204.994L332.777 206.847L332.542 205.875L328.704 206.801C328.241 206.913 327.759 206.913 327.296 206.801L323.458 205.875L323.223 206.847L315.546 204.994L315.781 204.022L308.104 202.169L307.869 203.141L300.192 201.288L300.427 200.316L292.75 198.463L292.515 199.435L284.839 197.582L285.073 196.61L277.396 194.757L277.162 195.729L269.485 193.876L269.719 192.904L262.043 191.051L261.808 192.023L254.131 190.17L254.366 189.197L246.689 187.344L246.454 188.317L238.777 186.463L239.012 185.491L231.335 183.638L231.1 184.61L223.424 182.757L223.658 181.785L215.981 179.932L215.747 180.904L208.07 179.051L208.304 178.079L200.628 176.226L200.393 177.198L192.716 175.345L192.951 174.373L185.274 172.52L185.039 173.492L177.362 171.639L177.597 170.667L169.92 168.814L169.685 169.786L162.009 167.933L162.243 166.961L154.566 165.108L154.332 166.08L146.655 164.227L146.889 163.255L139.213 161.402L138.978 162.374L131.301 160.521L131.536 159.549L123.859 157.696L123.624 158.668L115.947 156.815L116.182 155.843L112.343 154.916C111.588 154.734 111.042 154.349 110.673 153.876L109.885 154.491C108.768 153.06 108.768 150.94 109.885 149.509L110.673 150.124C111.042 149.651 111.588 149.266 112.343 149.084L116.182 148.157L115.947 147.185L123.624 145.332L123.859 146.304L131.536 144.451L131.301 143.479L138.978 141.626L139.213 142.598L146.889 140.745L146.655 139.773L154.332 137.92L154.566 138.892L162.243 137.039L162.009 136.067L169.685 134.214L169.92 135.186L177.597 133.333L177.362 132.361L185.039 130.508L185.274 131.48L192.951 129.627L192.716 128.655L200.393 126.802L200.628 127.774L208.304 125.921L208.07 124.949L215.747 123.096L215.981 124.068L223.658 122.215L223.424 121.243L231.1 119.39L231.335 120.362L239.012 118.509L238.777 117.537L246.454 115.683L246.689 116.656L254.366 114.803L254.131 113.83L261.808 111.977L262.043 112.949L269.719 111.096L269.485 110.124L277.162 108.271L277.396 109.243L285.073 107.39L284.839 106.418L292.515 104.565L292.75 105.537L300.427 103.684L300.192 102.712L307.869 100.859L308.104 101.831L315.781 99.9782L315.546 99.0061Z" stroke="#A0A3A7" stroke-width="2" stroke-dasharray="8 8"/>
<path d="M327.061 48.2265C327.678 48.0777 328.322 48.0777 328.939 48.2265L543.891 100.112C547.973 101.097 547.973 106.903 543.891 107.888L328.939 159.773C328.322 159.922 327.678 159.922 327.061 159.773L112.109 107.888C108.027 106.903 108.027 101.097 112.109 100.112L327.061 48.2265Z" fill="#DCDFE0"/>
<path d="M568 248H616" stroke="#9144F5" stroke-width="2"/>
<rect x="616" y="236" width="24" height="24" rx="12" fill="#9144F5"/>
<path d="M629.68 242.12V253H627.52V244.76L625.648 246.056L624.592 244.584L628 242.12H629.68Z" fill="white"/>
<path d="M663.038 240.914C665 240.914 666.314 241.508 667.808 242.822L666.332 244.568C665 243.416 664.118 243.128 663.02 243.128C660.68 243.128 659.204 244.892 659.204 247.592C659.204 250.328 660.716 252.092 662.984 252.092C664.334 252.092 665.18 251.588 666.53 250.454L668.006 252.164C666.422 253.658 664.982 254.306 663.02 254.306C659.042 254.306 656.63 251.426 656.63 247.574C656.63 243.812 658.952 240.914 663.038 240.914ZM672.423 254.306C670.677 254.306 669.129 253.55 669.129 251.678C669.129 249.554 671.019 248.816 673.107 248.438L675.267 248.042V247.826C675.267 246.926 674.601 246.422 673.539 246.422C672.279 246.422 671.631 246.998 670.677 247.916L669.201 246.566C670.353 245.198 671.685 244.496 673.503 244.496C676.149 244.496 677.499 245.846 677.499 247.79V254H675.393V253.046C674.835 253.82 673.845 254.306 672.423 254.306ZM671.415 251.516C671.415 252.092 671.937 252.434 672.819 252.434C674.007 252.434 675.267 251.858 675.267 250.256V249.716L673.719 250.04C672.333 250.328 671.415 250.652 671.415 251.516ZM684.494 244.496C686.636 244.496 687.788 245.828 687.788 247.7V254H685.448V248.402C685.448 247.196 684.854 246.512 683.738 246.512C682.658 246.512 681.884 247.304 681.884 248.456V254H679.544V244.802H681.722V245.846C682.298 245.018 683.234 244.496 684.494 244.496ZM697.771 244.802L694.639 254H691.795L688.681 244.802H691.147L692.065 247.808C692.551 249.41 692.947 250.76 693.253 251.984C693.559 250.76 693.937 249.41 694.423 247.808L695.341 244.802H697.771ZM701.796 254.306C700.05 254.306 698.502 253.55 698.502 251.678C698.502 249.554 700.392 248.816 702.48 248.438L704.64 248.042V247.826C704.64 246.926 703.974 246.422 702.912 246.422C701.652 246.422 701.004 246.998 700.05 247.916L698.574 246.566C699.726 245.198 701.058 244.496 702.876 244.496C705.522 244.496 706.872 245.846 706.872 247.79V254H704.766V253.046C704.208 253.82 703.218 254.306 701.796 254.306ZM700.788 251.516C700.788 252.092 701.31 252.434 702.192 252.434C703.38 252.434 704.64 251.858 704.64 250.256V249.716L703.092 250.04C701.706 250.328 700.788 250.652 700.788 251.516ZM712.445 244.496C713.993 244.496 715.109 244.856 716.405 245.936L715.145 247.466C714.029 246.602 713.327 246.386 712.391 246.386C711.455 246.386 710.843 246.764 710.843 247.304C710.843 247.898 711.437 248.006 712.985 248.348C715.505 248.906 716.549 249.572 716.549 251.282C716.549 253.046 715.109 254.288 712.607 254.288C710.915 254.288 709.655 253.874 708.161 252.542L709.511 251.03C710.861 252.128 711.581 252.398 712.661 252.398C713.579 252.398 714.263 252.056 714.263 251.426C714.263 250.67 713.309 250.526 711.995 250.238C709.403 249.662 708.611 249.014 708.611 247.376C708.611 245.81 709.979 244.496 712.445 244.496Z" fill="#9144F5"/>
<path d="M568 200H616" stroke="#9144F5" stroke-width="2"/>
<rect x="616" y="188" width="24" height="24" rx="12" fill="#9144F5"/>
<path d="M628.234 193.848C630.762 193.848 632.042 195.384 632.042 197.08C632.042 199.384 630.314 200.056 628.41 201.208C627.338 201.864 626.346 202.312 626.106 203.208H631.994V205H623.85V204.152C623.85 201.72 625.514 200.76 627.082 199.8C628.602 198.872 629.898 198.408 629.898 197.112C629.898 196.232 629.21 195.688 628.282 195.688C627.242 195.688 626.458 196.296 625.466 197.544L623.882 196.424C624.986 194.808 626.298 193.848 628.234 193.848Z" fill="white"/>
<path d="M661.742 192.932C663.866 192.932 665.216 193.508 666.854 194.912L665.378 196.676C663.902 195.434 663.074 195.11 661.688 195.11C660.248 195.11 659.348 195.794 659.348 196.676C659.348 197.684 660.284 197.918 662.462 198.422C665.558 199.16 667.016 199.934 667.016 202.148C667.016 204.578 665.09 206.306 661.958 206.306C659.69 206.306 658.196 205.658 656.288 203.948L657.8 202.166C659.51 203.66 660.482 204.11 662.012 204.11C663.47 204.11 664.514 203.48 664.514 202.346C664.514 201.158 663.254 201.014 661.274 200.546C657.872 199.718 656.864 198.764 656.864 196.748C656.864 194.606 658.808 192.932 661.742 192.932ZM676.78 196.802V206H674.638V205.028C674.188 205.766 673.324 206.288 671.938 206.288C669.652 206.288 668.68 205.046 668.68 203.372V196.802H671.02V202.724C671.02 203.66 671.506 204.254 672.55 204.254C673.684 204.254 674.44 203.624 674.44 202.346V196.802H676.78ZM683.322 196.676C683.826 196.676 684.258 196.784 684.78 196.946L684.366 198.998C683.88 198.872 683.502 198.818 683.196 198.818C681.954 198.818 681.18 199.808 681.18 201.464V206H678.84V196.802H681.018V198.152C681.45 197.27 682.188 196.676 683.322 196.676ZM690.04 192.896C690.616 192.896 691.192 192.95 692.002 193.22L691.588 194.966C691.102 194.858 690.778 194.822 690.508 194.822C689.77 194.822 689.392 195.128 689.392 196.01V196.802H691.444V198.584H689.392V206H687.052V198.584H685.468V196.802H687.052V195.884C687.052 193.868 688.132 192.896 690.04 192.896ZM695.662 206.306C693.916 206.306 692.368 205.55 692.368 203.678C692.368 201.554 694.258 200.816 696.346 200.438L698.506 200.042V199.826C698.506 198.926 697.84 198.422 696.778 198.422C695.518 198.422 694.87 198.998 693.916 199.916L692.44 198.566C693.592 197.198 694.924 196.496 696.742 196.496C699.388 196.496 700.738 197.846 700.738 199.79V206H698.632V205.046C698.074 205.82 697.084 206.306 695.662 206.306ZM694.654 203.516C694.654 204.092 695.176 204.434 696.058 204.434C697.246 204.434 698.506 203.858 698.506 202.256V201.716L696.958 202.04C695.572 202.328 694.654 202.652 694.654 203.516ZM709.46 199.682C708.416 198.692 707.786 198.476 707.066 198.476C705.518 198.476 704.69 199.79 704.69 201.392C704.69 202.994 705.518 204.29 707.048 204.29C707.948 204.29 708.596 203.894 709.55 202.868L711.098 204.164C709.784 205.802 708.614 206.288 707.012 206.288C704.24 206.288 702.314 204.434 702.314 201.392C702.314 198.35 704.294 196.496 707.066 196.496C708.524 196.496 709.694 196.91 710.918 198.242L709.46 199.682ZM716.472 206.288C713.502 206.288 711.648 204.38 711.648 201.446C711.648 198.602 713.376 196.496 716.274 196.496C719.082 196.496 720.576 198.26 720.576 201.086C720.576 201.374 720.558 201.806 720.54 202.004H713.934C714.132 203.336 714.924 204.308 716.526 204.308C717.606 204.308 718.182 203.948 719.262 203.048L720.576 204.488C719.226 205.856 717.966 206.288 716.472 206.288ZM713.988 200.33H718.29C718.2 199.106 717.48 198.332 716.202 198.332C714.96 198.332 714.24 199.142 713.988 200.33Z" fill="#9144F5"/>
<path d="M568 104H616" stroke="#9144F5" stroke-width="2"/>
<rect x="616" y="92" width="24" height="24" rx="12" fill="#9144F5"/>
<path d="M630.224 98.12L625.904 104.888H628.896V102.696H631.008V104.888H632.512V106.616H631.008V109H628.896V106.616H623.712V104.616L627.856 98.12H630.224Z" fill="white"/>
<path d="M663.038 96.914C665 96.914 666.314 97.508 667.808 98.822L666.332 100.568C665 99.416 664.118 99.128 663.02 99.128C660.68 99.128 659.204 100.892 659.204 103.592C659.204 106.328 660.716 108.092 662.984 108.092C664.334 108.092 665.18 107.588 666.53 106.454L668.006 108.164C666.422 109.658 664.982 110.306 663.02 110.306C659.042 110.306 656.63 107.426 656.63 103.574C656.63 99.812 658.952 96.914 663.038 96.914ZM673.616 100.496C676.406 100.496 678.386 102.476 678.386 105.392C678.386 108.308 676.406 110.288 673.616 110.288C670.808 110.288 668.828 108.308 668.828 105.392C668.828 102.476 670.808 100.496 673.616 100.496ZM671.204 105.392C671.204 107.174 672.158 108.308 673.616 108.308C675.056 108.308 676.01 107.174 676.01 105.392C676.01 103.628 675.056 102.476 673.616 102.476C672.158 102.476 671.204 103.628 671.204 105.392ZM684.915 100.496C687.057 100.496 688.209 101.828 688.209 103.7V110H685.869V104.402C685.869 103.196 685.275 102.512 684.159 102.512C683.079 102.512 682.305 103.304 682.305 104.456V110H679.965V100.802H682.143V101.846C682.719 101.018 683.655 100.496 684.915 100.496ZM693.366 107.336C693.366 107.984 693.672 108.182 694.284 108.182C694.554 108.182 694.842 108.164 695.436 108.02L695.706 109.874C694.896 110.144 694.23 110.216 693.636 110.216C691.764 110.216 691.026 109.334 691.026 107.624V102.584H689.388V100.802H691.026V97.958H693.366V100.802H695.562V102.584H693.366V107.336ZM701.161 110.288C698.191 110.288 696.337 108.38 696.337 105.446C696.337 102.602 698.065 100.496 700.963 100.496C703.771 100.496 705.265 102.26 705.265 105.086C705.265 105.374 705.247 105.806 705.229 106.004H698.623C698.821 107.336 699.613 108.308 701.215 108.308C702.295 108.308 702.871 107.948 703.951 107.048L705.265 108.488C703.915 109.856 702.655 110.288 701.161 110.288ZM698.677 104.33H702.979C702.889 103.106 702.169 102.332 700.891 102.332C699.649 102.332 698.929 103.142 698.677 104.33ZM711.845 100.496C713.987 100.496 715.139 101.828 715.139 103.7V110H712.799V104.402C712.799 103.196 712.205 102.512 711.089 102.512C710.009 102.512 709.235 103.304 709.235 104.456V110H706.895V100.802H709.073V101.846C709.649 101.018 710.585 100.496 711.845 100.496ZM720.296 107.336C720.296 107.984 720.602 108.182 721.214 108.182C721.484 108.182 721.772 108.164 722.366 108.02L722.636 109.874C721.826 110.144 721.16 110.216 720.566 110.216C718.694 110.216 717.956 109.334 717.956 107.624V102.584H716.318V100.802H717.956V97.958H720.296V100.802H722.492V102.584H720.296V107.336Z" fill="#9144F5"/>
<path d="M568 152H616" stroke="#9144F5" stroke-width="2"/>
<rect x="616" y="140" width="24" height="24" rx="12" fill="#9144F5"/>
<path d="M631.559 146.12V147.88L628.583 150.408C630.535 150.488 631.975 151.688 631.975 153.656C631.975 155.432 630.583 157.272 627.879 157.272C626.423 157.272 625.239 156.92 623.687 155.864L624.727 154.344C625.959 155.096 626.791 155.432 627.815 155.432C629.079 155.432 629.815 154.728 629.815 153.672C629.815 152.584 628.935 151.96 627.703 151.96C627.015 151.96 626.615 152.088 626.407 152.168L625.463 150.872L628.951 147.912H624.247V146.12H631.559Z" fill="white"/>
<path d="M663.398 145.22C665.576 145.22 667.25 146.354 667.25 148.514C667.25 149.954 666.44 150.89 665.27 151.286C666.782 151.754 667.7 152.762 667.7 154.4C667.7 156.65 666.134 158 663.74 158H657.314V145.22H663.398ZM659.834 156.056H662.84C664.406 156.056 665.18 155.354 665.18 154.202C665.18 153.068 664.388 152.33 662.84 152.33H659.834V156.056ZM659.834 150.368H662.786C664.1 150.368 664.802 149.738 664.802 148.712C664.802 147.686 664.118 147.164 662.804 147.164H659.834V150.368ZM673.774 148.496C676.564 148.496 678.544 150.476 678.544 153.392C678.544 156.308 676.564 158.288 673.774 158.288C670.966 158.288 668.986 156.308 668.986 153.392C668.986 150.476 670.966 148.496 673.774 148.496ZM671.362 153.392C671.362 155.174 672.316 156.308 673.774 156.308C675.214 156.308 676.168 155.174 676.168 153.392C676.168 151.628 675.214 150.476 673.774 150.476C672.316 150.476 671.362 151.628 671.362 153.392ZM684.606 148.676C685.11 148.676 685.542 148.784 686.064 148.946L685.65 150.998C685.164 150.872 684.786 150.818 684.48 150.818C683.238 150.818 682.464 151.808 682.464 153.464V158H680.124V148.802H682.302V150.152C682.734 149.27 683.472 148.676 684.606 148.676ZM690.474 158.27C688.134 158.27 686.406 156.38 686.406 153.41C686.406 150.422 688.152 148.55 690.492 148.55C691.734 148.55 692.634 148.982 693.246 149.756V145.22H695.586V158H693.408V156.794C692.796 157.712 691.842 158.27 690.474 158.27ZM688.782 153.41C688.782 155.138 689.628 156.254 691.014 156.254C692.364 156.254 693.336 155.174 693.336 153.41C693.336 151.61 692.328 150.584 691.032 150.584C689.7 150.584 688.782 151.664 688.782 153.41ZM701.987 158.288C699.017 158.288 697.163 156.38 697.163 153.446C697.163 150.602 698.891 148.496 701.789 148.496C704.597 148.496 706.091 150.26 706.091 153.086C706.091 153.374 706.073 153.806 706.055 154.004H699.449C699.647 155.336 700.439 156.308 702.041 156.308C703.121 156.308 703.697 155.948 704.777 155.048L706.091 156.488C704.741 157.856 703.481 158.288 701.987 158.288ZM699.503 152.33H703.805C703.715 151.106 702.995 150.332 701.717 150.332C700.475 150.332 699.755 151.142 699.503 152.33ZM712.203 148.676C712.707 148.676 713.139 148.784 713.661 148.946L713.247 150.998C712.761 150.872 712.383 150.818 712.077 150.818C710.835 150.818 710.061 151.808 710.061 153.464V158H707.721V148.802H709.899V150.152C710.331 149.27 711.069 148.676 712.203 148.676Z" fill="#9144F5"/>
</svg>
