<svg width="416" height="176" viewBox="0 0 416 176" fill="none" xmlns="http://www.w3.org/2000/svg">
<rect width="416" height="176" fill="white"/>
<rect x="80" y="44" width="56" height="32" rx="16" fill="#777A7E"/>
<path d="M86 60C86 54.4772 90.4772 50 96 50C101.523 50 106 54.4772 106 60C106 65.5228 101.523 70 96 70C90.4772 70 86 65.5228 86 60Z" fill="white"/>
<path d="M158.246 49.22C161.9 49.22 163.898 51.866 163.898 55.61C163.898 59.354 161.9 62 158.246 62H153.476V49.22H158.246ZM155.132 60.614H157.976C160.676 60.614 162.206 58.724 162.206 55.61C162.206 52.514 160.676 50.606 157.976 50.606H155.132V60.614ZM169.96 52.892C172.534 52.892 174.334 54.8 174.334 57.572C174.334 60.344 172.534 62.252 169.96 62.252C167.368 62.252 165.568 60.344 165.568 57.572C165.568 54.8 167.368 52.892 169.96 52.892ZM167.152 57.572C167.152 59.57 168.25 60.956 169.96 60.956C171.67 60.956 172.75 59.57 172.75 57.572C172.75 55.574 171.67 54.188 169.96 54.188C168.25 54.188 167.152 55.574 167.152 57.572ZM183.737 63.224C183.197 64.754 182.621 65.474 181.073 65.474C180.587 65.474 180.083 65.402 179.705 65.294L179.975 64.106C180.299 64.178 180.641 64.214 180.929 64.214C181.613 64.214 182.045 63.926 182.423 62.81L182.531 62.468L179.201 53.144H180.839L181.829 56.078C182.315 57.482 182.873 59.192 183.287 60.452C183.701 59.192 184.241 57.5 184.727 56.042L185.717 53.144H187.283L183.737 63.224ZM192.531 52.892C195.105 52.892 196.905 54.8 196.905 57.572C196.905 60.344 195.105 62.252 192.531 62.252C189.939 62.252 188.139 60.344 188.139 57.572C188.139 54.8 189.939 52.892 192.531 52.892ZM189.723 57.572C189.723 59.57 190.821 60.956 192.531 60.956C194.241 60.956 195.321 59.57 195.321 57.572C195.321 55.574 194.241 54.188 192.531 54.188C190.821 54.188 189.723 55.574 189.723 57.572ZM206.023 53.144V62H204.583V60.902C204.061 61.766 203.089 62.252 201.901 62.252C199.651 62.252 198.75 60.956 198.75 59.354V53.144H200.299V58.976C200.299 60.236 200.947 60.92 202.153 60.92C203.449 60.92 204.475 60.128 204.475 58.544V53.144H206.023ZM224.161 53.144L221.677 62H219.805L218.977 59.174C218.473 57.392 218.149 56.096 217.897 54.998C217.645 56.078 217.321 57.41 216.817 59.192L216.043 62H214.171L211.687 53.144H213.289L214.171 56.456C214.603 58.094 214.909 59.444 215.179 60.65C215.467 59.462 215.809 58.094 216.259 56.456L217.195 53.144H218.653L219.589 56.456C220.057 58.112 220.399 59.48 220.669 60.686C220.939 59.48 221.263 58.094 221.695 56.456L222.577 53.144H224.161ZM228.435 62.288C226.707 62.288 225.267 61.568 225.267 59.804C225.267 57.734 227.175 57.122 229.389 56.726L231.369 56.366V55.916C231.369 54.8 230.523 54.17 229.299 54.17C228.165 54.17 227.427 54.602 226.383 55.664L225.393 54.782C226.491 53.486 227.715 52.892 229.245 52.892C231.585 52.892 232.845 54.116 232.845 55.844V62H231.441V60.902C230.847 61.802 229.767 62.288 228.435 62.288ZM226.779 59.75C226.779 60.56 227.463 61.01 228.597 61.01C230.127 61.01 231.369 60.146 231.369 58.688V57.518L229.749 57.842C228.021 58.202 226.779 58.526 226.779 59.75ZM239.491 52.892C241.651 52.892 242.659 54.278 242.659 55.934V62H241.111V56.42C241.111 54.962 240.391 54.206 239.077 54.206C237.799 54.206 236.791 55.196 236.791 56.51V62H235.243V53.144H236.701V54.278C237.295 53.36 238.303 52.892 239.491 52.892ZM247.163 59.768C247.163 60.56 247.469 60.848 248.207 60.848C248.531 60.848 248.891 60.794 249.485 60.632L249.719 61.856C249.071 62.09 248.423 62.162 247.901 62.162C246.209 62.162 245.615 61.352 245.615 59.948V54.314H243.959V53.144H245.615V50.174H247.163V53.144H249.557V54.314H247.163V59.768ZM257.657 59.768C257.657 60.56 257.963 60.848 258.701 60.848C259.025 60.848 259.385 60.794 259.979 60.632L260.213 61.856C259.565 62.09 258.917 62.162 258.395 62.162C256.703 62.162 256.109 61.352 256.109 59.948V54.314H254.453V53.144H256.109V50.174H257.657V53.144H260.051V54.314H257.657V59.768ZM265.322 52.892C267.896 52.892 269.696 54.8 269.696 57.572C269.696 60.344 267.896 62.252 265.322 62.252C262.73 62.252 260.93 60.344 260.93 57.572C260.93 54.8 262.73 52.892 265.322 52.892ZM262.514 57.572C262.514 59.57 263.612 60.956 265.322 60.956C267.032 60.956 268.112 59.57 268.112 57.572C268.112 55.574 267.032 54.188 265.322 54.188C263.612 54.188 262.514 55.574 262.514 57.572ZM279.292 53.036C279.814 53.036 280.3 53.162 280.696 53.306L280.408 54.602C279.958 54.476 279.598 54.422 279.256 54.422C278.068 54.422 277.186 55.448 277.186 57.248V62H275.638V53.144H277.096V54.476C277.51 53.612 278.248 53.036 279.292 53.036ZM285.449 62.252C282.749 62.252 281.057 60.398 281.057 57.626C281.057 54.854 282.695 52.892 285.287 52.892C287.843 52.892 289.283 54.548 289.283 57.158C289.283 57.338 289.265 57.68 289.247 57.842H282.605C282.695 59.48 283.541 60.956 285.467 60.956C286.601 60.956 287.267 60.542 288.383 59.48L289.301 60.416C288.005 61.802 286.889 62.252 285.449 62.252ZM282.641 56.69H287.753C287.681 55.16 286.817 54.134 285.269 54.134C283.829 54.134 282.875 55.052 282.641 56.69ZM297.512 55.52C296.522 54.458 295.82 54.188 294.956 54.188C293.138 54.188 292.256 55.844 292.256 57.572C292.256 59.3 293.138 60.938 294.974 60.938C295.928 60.938 296.576 60.596 297.62 59.462L298.646 60.326C297.458 61.784 296.414 62.252 294.974 62.252C292.364 62.252 290.672 60.416 290.672 57.572C290.672 54.746 292.418 52.892 294.974 52.892C296.432 52.892 297.44 53.342 298.52 54.566L297.512 55.52ZM303.888 62.252C301.188 62.252 299.496 60.398 299.496 57.626C299.496 54.854 301.134 52.892 303.726 52.892C306.282 52.892 307.722 54.548 307.722 57.158C307.722 57.338 307.704 57.68 307.686 57.842H301.044C301.134 59.48 301.98 60.956 303.906 60.956C305.04 60.956 305.706 60.542 306.822 59.48L307.74 60.416C306.444 61.802 305.328 62.252 303.888 62.252ZM301.08 56.69H306.192C306.12 55.16 305.256 54.134 303.708 54.134C302.268 54.134 301.314 55.052 301.08 56.69ZM311.199 53.144V62H309.651V53.144H311.199ZM309.651 51.398V49.544H311.199V51.398H309.651ZM320.77 53.144L317.692 62H315.73L312.67 53.144H314.29L315.388 56.402C315.946 58.112 316.396 59.534 316.738 60.758C317.08 59.534 317.53 58.112 318.088 56.402L319.186 53.144H320.77ZM325.984 62.252C323.284 62.252 321.592 60.398 321.592 57.626C321.592 54.854 323.23 52.892 325.822 52.892C328.378 52.892 329.818 54.548 329.818 57.158C329.818 57.338 329.8 57.68 329.782 57.842H323.14C323.23 59.48 324.076 60.956 326.002 60.956C327.136 60.956 327.802 60.542 328.918 59.48L329.836 60.416C328.54 61.802 327.424 62.252 325.984 62.252ZM323.176 56.69H328.288C328.216 55.16 327.352 54.134 325.804 54.134C324.364 54.134 323.41 55.052 323.176 56.69ZM157.454 76.892C159.614 76.892 160.622 78.278 160.622 79.934V86H159.074V80.42C159.074 78.962 158.354 78.206 157.04 78.206C155.762 78.206 154.754 79.196 154.754 80.51V86H153.206V77.144H154.664V78.278C155.258 77.36 156.266 76.892 157.454 76.892ZM166.867 76.892C169.441 76.892 171.241 78.8 171.241 81.572C171.241 84.344 169.441 86.252 166.867 86.252C164.275 86.252 162.475 84.344 162.475 81.572C162.475 78.8 164.275 76.892 166.867 76.892ZM164.059 81.572C164.059 83.57 165.157 84.956 166.867 84.956C168.577 84.956 169.657 83.57 169.657 81.572C169.657 79.574 168.577 78.188 166.867 78.188C165.157 78.188 164.059 79.574 164.059 81.572ZM175.145 83.768C175.145 84.56 175.451 84.848 176.189 84.848C176.513 84.848 176.873 84.794 177.467 84.632L177.701 85.856C177.053 86.09 176.405 86.162 175.883 86.162C174.191 86.162 173.597 85.352 173.597 83.948V78.314H171.941V77.144H173.597V74.174H175.145V77.144H177.539V78.314H175.145V83.768ZM180.787 77.144V86H179.239V77.144H180.787ZM179.239 75.398V73.544H180.787V75.398H179.239ZM183.95 75.74C183.95 73.994 184.868 73.004 186.578 73.004C187.064 73.004 187.532 73.094 188 73.22L187.766 74.408C187.352 74.336 187.1 74.3 186.83 74.3C185.84 74.3 185.498 74.768 185.498 75.92V77.144H187.712V78.314H185.498V86H183.95V78.314H182.312V77.144H183.95V75.74ZM189.188 86V77.144H190.736V86H189.188ZM189.188 75.398V73.544H190.736V75.398H189.188ZM199.461 79.52C198.471 78.458 197.769 78.188 196.905 78.188C195.087 78.188 194.205 79.844 194.205 81.572C194.205 83.3 195.087 84.938 196.923 84.938C197.877 84.938 198.525 84.596 199.569 83.462L200.595 84.326C199.407 85.784 198.363 86.252 196.923 86.252C194.313 86.252 192.621 84.416 192.621 81.572C192.621 78.746 194.367 76.892 196.923 76.892C198.381 76.892 199.389 77.342 200.469 78.566L199.461 79.52ZM205.091 86.288C203.363 86.288 201.923 85.568 201.923 83.804C201.923 81.734 203.831 81.122 206.045 80.726L208.025 80.366V79.916C208.025 78.8 207.179 78.17 205.955 78.17C204.821 78.17 204.083 78.602 203.039 79.664L202.049 78.782C203.147 77.486 204.371 76.892 205.901 76.892C208.241 76.892 209.501 78.116 209.501 79.844V86H208.097V84.902C207.503 85.802 206.423 86.288 205.091 86.288ZM203.435 83.75C203.435 84.56 204.119 85.01 205.253 85.01C206.783 85.01 208.025 84.146 208.025 82.688V81.518L206.405 81.842C204.677 82.202 203.435 82.526 203.435 83.75ZM214.01 83.768C214.01 84.56 214.316 84.848 215.054 84.848C215.378 84.848 215.738 84.794 216.332 84.632L216.566 85.856C215.918 86.09 215.27 86.162 214.748 86.162C213.056 86.162 212.462 85.352 212.462 83.948V78.314H210.806V77.144H212.462V74.174H214.01V77.144H216.404V78.314H214.01V83.768ZM219.652 77.144V86H218.104V77.144H219.652ZM218.104 75.398V73.544H219.652V75.398H218.104ZM225.912 76.892C228.486 76.892 230.286 78.8 230.286 81.572C230.286 84.344 228.486 86.252 225.912 86.252C223.32 86.252 221.52 84.344 221.52 81.572C221.52 78.8 223.32 76.892 225.912 76.892ZM223.104 81.572C223.104 83.57 224.202 84.956 225.912 84.956C227.622 84.956 228.702 83.57 228.702 81.572C228.702 79.574 227.622 78.188 225.912 78.188C224.202 78.188 223.104 79.574 223.104 81.572ZM236.397 76.892C238.557 76.892 239.565 78.278 239.565 79.934V86H238.017V80.42C238.017 78.962 237.297 78.206 235.983 78.206C234.705 78.206 233.697 79.196 233.697 80.51V86H232.149V77.144H233.607V78.278C234.201 77.36 235.209 76.892 236.397 76.892ZM244.982 76.892C246.422 76.892 247.43 77.234 248.618 78.188L247.772 79.232C246.62 78.35 245.936 78.152 244.982 78.152C243.776 78.152 243.038 78.71 243.038 79.466C243.038 80.24 243.794 80.42 245.414 80.78C247.718 81.302 248.762 81.932 248.762 83.498C248.762 85.136 247.358 86.252 245.216 86.252C243.65 86.252 242.534 85.838 241.13 84.596L242.048 83.588C243.362 84.686 244.154 84.974 245.234 84.974C246.386 84.974 247.25 84.452 247.25 83.57C247.25 82.598 246.188 82.328 244.766 82.022C242.408 81.518 241.544 80.996 241.544 79.52C241.544 77.972 242.93 76.892 244.982 76.892ZM253.325 72.932C255.395 72.932 257.177 74.066 257.177 76.172C257.177 77.9 255.863 78.8 254.801 79.772C253.901 80.564 253.451 80.978 253.361 81.95L253.307 82.472H252.029V81.824C252.029 80.474 252.281 79.988 253.685 78.764C254.621 77.954 255.539 77.324 255.539 76.208C255.539 75.074 254.621 74.372 253.289 74.372C252.173 74.372 251.345 74.804 250.067 75.848L249.131 74.786C250.463 73.58 251.723 72.932 253.325 72.932ZM251.777 86V84.056H253.613V86H251.777Z" fill="#131416"/>
<rect x="80" y="100" width="56" height="32" rx="16" fill="#777A7E"/>
<path d="M86 116C86 110.477 90.4772 106 96 106C101.523 106 106 110.477 106 116C106 121.523 101.523 126 96 126C90.4772 126 86 121.523 86 116Z" fill="white"/>
<path d="M162.296 109.22V110.624H158.264V122H156.59V110.624H152.558V109.22H162.296ZM169.565 113.144V122H168.125V120.902C167.603 121.766 166.631 122.252 165.443 122.252C163.193 122.252 162.293 120.956 162.293 119.354V113.144H163.841V118.976C163.841 120.236 164.489 120.92 165.695 120.92C166.991 120.92 168.017 120.128 168.017 118.544V113.144H169.565ZM175.633 113.036C176.155 113.036 176.641 113.162 177.037 113.306L176.749 114.602C176.299 114.476 175.939 114.422 175.597 114.422C174.409 114.422 173.527 115.448 173.527 117.248V122H171.979V113.144H173.437V114.476C173.851 113.612 174.589 113.036 175.633 113.036ZM182.679 112.892C184.839 112.892 185.847 114.278 185.847 115.934V122H184.299V116.42C184.299 114.962 183.579 114.206 182.265 114.206C180.987 114.206 179.979 115.196 179.979 116.51V122H178.431V113.144H179.889V114.278C180.483 113.36 181.491 112.892 182.679 112.892ZM196.169 112.892C198.743 112.892 200.543 114.8 200.543 117.572C200.543 120.344 198.743 122.252 196.169 122.252C193.577 122.252 191.777 120.344 191.777 117.572C191.777 114.8 193.577 112.892 196.169 112.892ZM193.361 117.572C193.361 119.57 194.459 120.956 196.169 120.956C197.879 120.956 198.959 119.57 198.959 117.572C198.959 115.574 197.879 114.188 196.169 114.188C194.459 114.188 193.361 115.574 193.361 117.572ZM206.655 112.892C208.815 112.892 209.823 114.278 209.823 115.934V122H208.275V116.42C208.275 114.962 207.555 114.206 206.241 114.206C204.963 114.206 203.955 115.196 203.955 116.51V122H202.407V113.144H203.865V114.278C204.459 113.36 205.467 112.892 206.655 112.892ZM220.542 112.892C222.702 112.892 223.71 114.278 223.71 115.934V122H222.162V116.42C222.162 114.962 221.442 114.206 220.128 114.206C218.85 114.206 217.842 115.196 217.842 116.51V122H216.294V113.144H217.752V114.278C218.346 113.36 219.354 112.892 220.542 112.892ZM229.954 112.892C232.528 112.892 234.328 114.8 234.328 117.572C234.328 120.344 232.528 122.252 229.954 122.252C227.362 122.252 225.562 120.344 225.562 117.572C225.562 114.8 227.362 112.892 229.954 112.892ZM227.146 117.572C227.146 119.57 228.244 120.956 229.954 120.956C231.664 120.956 232.744 119.57 232.744 117.572C232.744 115.574 231.664 114.188 229.954 114.188C228.244 114.188 227.146 115.574 227.146 117.572ZM238.233 119.768C238.233 120.56 238.539 120.848 239.277 120.848C239.601 120.848 239.961 120.794 240.555 120.632L240.789 121.856C240.141 122.09 239.493 122.162 238.971 122.162C237.279 122.162 236.685 121.352 236.685 119.948V114.314H235.029V113.144H236.685V110.174H238.233V113.144H240.627V114.314H238.233V119.768ZM243.875 113.144V122H242.327V113.144H243.875ZM242.327 111.398V109.544H243.875V111.398H242.327ZM247.038 111.74C247.038 109.994 247.956 109.004 249.666 109.004C250.152 109.004 250.62 109.094 251.088 109.22L250.854 110.408C250.44 110.336 250.188 110.3 249.918 110.3C248.928 110.3 248.586 110.768 248.586 111.92V113.144H250.8V114.314H248.586V122H247.038V114.314H245.4V113.144H247.038V111.74ZM252.276 122V113.144H253.824V122H252.276ZM252.276 111.398V109.544H253.824V111.398H252.276ZM262.549 115.52C261.559 114.458 260.857 114.188 259.993 114.188C258.175 114.188 257.293 115.844 257.293 117.572C257.293 119.3 258.175 120.938 260.011 120.938C260.965 120.938 261.613 120.596 262.657 119.462L263.683 120.326C262.495 121.784 261.451 122.252 260.011 122.252C257.401 122.252 255.709 120.416 255.709 117.572C255.709 114.746 257.455 112.892 260.011 112.892C261.469 112.892 262.477 113.342 263.557 114.566L262.549 115.52ZM268.179 122.288C266.451 122.288 265.011 121.568 265.011 119.804C265.011 117.734 266.919 117.122 269.133 116.726L271.113 116.366V115.916C271.113 114.8 270.267 114.17 269.043 114.17C267.909 114.17 267.171 114.602 266.127 115.664L265.137 114.782C266.235 113.486 267.459 112.892 268.989 112.892C271.329 112.892 272.589 114.116 272.589 115.844V122H271.185V120.902C270.591 121.802 269.511 122.288 268.179 122.288ZM266.523 119.75C266.523 120.56 267.207 121.01 268.341 121.01C269.871 121.01 271.113 120.146 271.113 118.688V117.518L269.493 117.842C267.765 118.202 266.523 118.526 266.523 119.75ZM277.098 119.768C277.098 120.56 277.404 120.848 278.142 120.848C278.466 120.848 278.826 120.794 279.42 120.632L279.654 121.856C279.006 122.09 278.358 122.162 277.836 122.162C276.144 122.162 275.55 121.352 275.55 119.948V114.314H273.894V113.144H275.55V110.174H277.098V113.144H279.492V114.314H277.098V119.768ZM282.74 113.144V122H281.192V113.144H282.74ZM281.192 111.398V109.544H282.74V111.398H281.192ZM288.999 112.892C291.573 112.892 293.373 114.8 293.373 117.572C293.373 120.344 291.573 122.252 288.999 122.252C286.407 122.252 284.607 120.344 284.607 117.572C284.607 114.8 286.407 112.892 288.999 112.892ZM286.191 117.572C286.191 119.57 287.289 120.956 288.999 120.956C290.709 120.956 291.789 119.57 291.789 117.572C291.789 115.574 290.709 114.188 288.999 114.188C287.289 114.188 286.191 115.574 286.191 117.572ZM299.485 112.892C301.645 112.892 302.653 114.278 302.653 115.934V122H301.105V116.42C301.105 114.962 300.385 114.206 299.071 114.206C297.793 114.206 296.785 115.196 296.785 116.51V122H295.237V113.144H296.695V114.278C297.289 113.36 298.297 112.892 299.485 112.892ZM308.07 112.892C309.51 112.892 310.518 113.234 311.706 114.188L310.86 115.232C309.708 114.35 309.024 114.152 308.07 114.152C306.864 114.152 306.126 114.71 306.126 115.466C306.126 116.24 306.882 116.42 308.502 116.78C310.806 117.302 311.85 117.932 311.85 119.498C311.85 121.136 310.446 122.252 308.304 122.252C306.738 122.252 305.622 121.838 304.218 120.596L305.136 119.588C306.45 120.686 307.242 120.974 308.322 120.974C309.474 120.974 310.338 120.452 310.338 119.57C310.338 118.598 309.276 118.328 307.854 118.022C305.496 117.518 304.632 116.996 304.632 115.52C304.632 113.972 306.018 112.892 308.07 112.892Z" fill="#131416"/>
</svg>
