<svg width="416" height="304" viewBox="0 0 416 304" fill="none" xmlns="http://www.w3.org/2000/svg">
<rect width="416" height="304" fill="white"/>
<path d="M41.972 49.22V50.606H35.132V54.728H41.504V56.114H35.132V60.614H42.134V62H33.476V49.22H41.972ZM53.4448 52.892C55.4248 52.892 56.3968 54.152 56.3968 55.826V62H54.8488V56.258C54.8488 54.98 54.2908 54.206 53.0848 54.206C51.8428 54.206 51.0508 55.142 51.0508 56.438V62H49.5028V56.258C49.5028 54.98 48.9448 54.206 47.7388 54.206C46.5868 54.206 45.7228 55.052 45.7228 56.438V62H44.1748V53.144H45.6328V54.206C46.1548 53.36 46.9828 52.892 48.1708 52.892C49.4308 52.892 50.2948 53.468 50.7268 54.332C51.2668 53.486 52.1308 52.892 53.4448 52.892ZM61.5542 62.288C59.8262 62.288 58.3862 61.568 58.3862 59.804C58.3862 57.734 60.2942 57.122 62.5082 56.726L64.4882 56.366V55.916C64.4882 54.8 63.6422 54.17 62.4182 54.17C61.2842 54.17 60.5462 54.602 59.5022 55.664L58.5122 54.782C59.6102 53.486 60.8342 52.892 62.3642 52.892C64.7042 52.892 65.9642 54.116 65.9642 55.844V62H64.5602V60.902C63.9662 61.802 62.8862 62.288 61.5542 62.288ZM59.8982 59.75C59.8982 60.56 60.5822 61.01 61.7162 61.01C63.2462 61.01 64.4882 60.146 64.4882 58.688V57.518L62.8682 57.842C61.1402 58.202 59.8982 58.526 59.8982 59.75ZM69.9103 53.144V62H68.3623V53.144H69.9103ZM68.3623 51.398V49.544H69.9103V51.398H68.3623ZM73.9193 49.22V62H72.3713V49.22H73.9193Z" fill="#131416"/>
<mask id="path-2-inside-1_9322_2159" fill="white">
<path d="M32 80C32 77.7909 33.7909 76 36 76H380C382.209 76 384 77.7909 384 80V120C384 122.209 382.209 124 380 124H36C33.7909 124 32 122.209 32 120V80Z"/>
</mask>
<path d="M32 80C32 77.7909 33.7909 76 36 76H380C382.209 76 384 77.7909 384 80V120C384 122.209 382.209 124 380 124H36C33.7909 124 32 122.209 32 120V80Z" fill="white"/>
<path d="M36 78H380V74H36V78ZM382 80V120H386V80H382ZM380 122H36V126H380V122ZM34 120V80H30V120H34ZM36 122C34.8954 122 34 121.105 34 120H30C30 123.314 32.6863 126 36 126V122ZM382 120C382 121.105 381.105 122 380 122V126C383.314 126 386 123.314 386 120H382ZM380 78C381.105 78 382 78.8954 382 80H386C386 76.6863 383.314 74 380 74V78ZM36 74C32.6863 74 30 76.6863 30 80H34C34 78.8954 34.8954 78 36 78V74Z" fill="#131416" mask="url(#path-2-inside-1_9322_2159)"/>
<mask id="path-4-inside-2_9322_2159" fill="white">
<path d="M32 152C32 149.791 33.7909 148 36 148H60C62.2091 148 64 149.791 64 152V176C64 178.209 62.2091 180 60 180H36C33.7909 180 32 178.209 32 176V152Z"/>
</mask>
<path d="M32 152C32 149.791 33.7909 148 36 148H60C62.2091 148 64 149.791 64 152V176C64 178.209 62.2091 180 60 180H36C33.7909 180 32 178.209 32 176V152Z" fill="white"/>
<path d="M36 150H60V146H36V150ZM62 152V176H66V152H62ZM60 178H36V182H60V178ZM34 176V152H30V176H34ZM36 178C34.8954 178 34 177.105 34 176H30C30 179.314 32.6863 182 36 182V178ZM62 176C62 177.105 61.1046 178 60 178V182C63.3137 182 66 179.314 66 176H62ZM60 150C61.1046 150 62 150.895 62 152H66C66 148.686 63.3137 146 60 146V150ZM36 146C32.6863 146 30 148.686 30 152H34C34 150.895 34.8954 150 36 150V146Z" fill="#131416" mask="url(#path-4-inside-2_9322_2159)"/>
<path d="M79.258 157.22V170H77.602V157.22H79.258ZM88.9077 170.288C87.1797 170.288 85.7397 169.568 85.7397 167.804C85.7397 165.734 87.6477 165.122 89.8617 164.726L91.8417 164.366V163.916C91.8417 162.8 90.9957 162.17 89.7717 162.17C88.6377 162.17 87.8997 162.602 86.8557 163.664L85.8657 162.782C86.9637 161.486 88.1877 160.892 89.7177 160.892C92.0577 160.892 93.3177 162.116 93.3177 163.844V170H91.9137V168.902C91.3197 169.802 90.2397 170.288 88.9077 170.288ZM87.2517 167.75C87.2517 168.56 87.9357 169.01 89.0697 169.01C90.5997 169.01 91.8417 168.146 91.8417 166.688V165.518L90.2217 165.842C88.4937 166.202 87.2517 166.526 87.2517 167.75ZM99.4598 173.474C97.9838 173.474 96.6698 173.024 95.4458 172.16L96.2198 171.026C97.3358 171.728 98.2358 172.16 99.4418 172.16C100.828 172.16 101.944 171.476 101.944 169.676V168.47C101.368 169.352 100.432 169.892 99.1178 169.892C96.8138 169.892 95.2298 168.02 95.2298 165.392C95.2298 162.764 96.8138 160.892 99.1178 160.892C100.504 160.892 101.458 161.486 102.034 162.458V161.144H103.474V169.802C103.474 172.124 101.89 173.474 99.4598 173.474ZM96.8138 165.392C96.8138 167.264 97.7498 168.578 99.3698 168.578C100.936 168.578 101.98 167.264 101.98 165.392C101.98 163.538 100.936 162.206 99.3698 162.206C97.7498 162.206 96.8138 163.538 96.8138 165.392ZM109.548 161.036C110.07 161.036 110.556 161.162 110.952 161.306L110.664 162.602C110.214 162.476 109.854 162.422 109.512 162.422C108.324 162.422 107.442 163.448 107.442 165.248V170H105.894V161.144H107.352V162.476C107.766 161.612 108.504 161.036 109.548 161.036ZM115.704 170.252C113.004 170.252 111.312 168.398 111.312 165.626C111.312 162.854 112.95 160.892 115.542 160.892C118.098 160.892 119.538 162.548 119.538 165.158C119.538 165.338 119.52 165.68 119.502 165.842H112.86C112.95 167.48 113.796 168.956 115.722 168.956C116.856 168.956 117.522 168.542 118.638 167.48L119.556 168.416C118.26 169.802 117.144 170.252 115.704 170.252ZM112.896 164.69H118.008C117.936 163.16 117.072 162.134 115.524 162.134C114.084 162.134 113.13 163.052 112.896 164.69ZM125.32 170.252C122.62 170.252 120.928 168.398 120.928 165.626C120.928 162.854 122.566 160.892 125.158 160.892C127.714 160.892 129.154 162.548 129.154 165.158C129.154 165.338 129.136 165.68 129.118 165.842H122.476C122.566 167.48 123.412 168.956 125.338 168.956C126.472 168.956 127.138 168.542 128.254 167.48L129.172 168.416C127.876 169.802 126.76 170.252 125.32 170.252ZM122.512 164.69H127.624C127.552 163.16 126.688 162.134 125.14 162.134C123.7 162.134 122.746 163.052 122.512 164.69ZM146.807 161.144L144.323 170H142.451L141.623 167.174C141.119 165.392 140.795 164.096 140.543 162.998C140.291 164.078 139.967 165.41 139.463 167.192L138.689 170H136.817L134.333 161.144H135.935L136.817 164.456C137.249 166.094 137.555 167.444 137.825 168.65C138.113 167.462 138.455 166.094 138.905 164.456L139.841 161.144H141.299L142.235 164.456C142.703 166.112 143.045 167.48 143.315 168.686C143.585 167.48 143.909 166.094 144.341 164.456L145.223 161.144H146.807ZM149.945 161.144V170H148.397V161.144H149.945ZM148.397 159.398V157.544H149.945V159.398H148.397ZM154.674 167.768C154.674 168.56 154.98 168.848 155.718 168.848C156.042 168.848 156.402 168.794 156.996 168.632L157.23 169.856C156.582 170.09 155.934 170.162 155.412 170.162C153.72 170.162 153.126 169.352 153.126 167.948V162.314H151.47V161.144H153.126V158.174H154.674V161.144H157.068V162.314H154.674V167.768ZM163.017 160.892C165.159 160.892 166.185 162.278 166.185 163.934V170H164.637V164.42C164.637 162.962 163.917 162.206 162.603 162.206C161.325 162.206 160.317 163.196 160.317 164.51V170H158.769V157.22H160.317V162.152C160.911 161.324 161.883 160.892 163.017 160.892ZM174.977 167.768C174.977 168.56 175.283 168.848 176.021 168.848C176.345 168.848 176.705 168.794 177.299 168.632L177.533 169.856C176.885 170.09 176.237 170.162 175.715 170.162C174.023 170.162 173.429 169.352 173.429 167.948V162.314H171.773V161.144H173.429V158.174H174.977V161.144H177.371V162.314H174.977V167.768ZM183.319 160.892C185.461 160.892 186.487 162.278 186.487 163.934V170H184.939V164.42C184.939 162.962 184.219 162.206 182.905 162.206C181.627 162.206 180.619 163.196 180.619 164.51V170H179.071V157.22H180.619V162.152C181.213 161.324 182.185 160.892 183.319 160.892ZM192.732 170.252C190.032 170.252 188.34 168.398 188.34 165.626C188.34 162.854 189.978 160.892 192.57 160.892C195.126 160.892 196.566 162.548 196.566 165.158C196.566 165.338 196.548 165.68 196.53 165.842H189.888C189.978 167.48 190.824 168.956 192.75 168.956C193.884 168.956 194.55 168.542 195.666 167.48L196.584 168.416C195.288 169.802 194.172 170.252 192.732 170.252ZM189.924 164.69H195.036C194.964 163.16 194.1 162.134 192.552 162.134C191.112 162.134 190.158 163.052 189.924 164.69ZM204.895 167.768C204.895 168.56 205.201 168.848 205.939 168.848C206.263 168.848 206.623 168.794 207.217 168.632L207.451 169.856C206.803 170.09 206.155 170.162 205.633 170.162C203.941 170.162 203.347 169.352 203.347 167.948V162.314H201.691V161.144H203.347V158.174H204.895V161.144H207.289V162.314H204.895V167.768ZM212.56 170.252C209.86 170.252 208.168 168.398 208.168 165.626C208.168 162.854 209.806 160.892 212.398 160.892C214.954 160.892 216.394 162.548 216.394 165.158C216.394 165.338 216.376 165.68 216.358 165.842H209.716C209.806 167.48 210.652 168.956 212.578 168.956C213.712 168.956 214.378 168.542 215.494 167.48L216.412 168.416C215.116 169.802 214 170.252 212.56 170.252ZM209.752 164.69H214.864C214.792 163.16 213.928 162.134 212.38 162.134C210.94 162.134 209.986 163.052 209.752 164.69ZM221.977 161.036C222.499 161.036 222.985 161.162 223.381 161.306L223.093 162.602C222.643 162.476 222.283 162.422 221.941 162.422C220.753 162.422 219.871 163.448 219.871 165.248V170H218.323V161.144H219.781V162.476C220.195 161.612 220.933 161.036 221.977 161.036ZM234.044 160.892C236.024 160.892 236.996 162.152 236.996 163.826V170H235.448V164.258C235.448 162.98 234.89 162.206 233.684 162.206C232.442 162.206 231.65 163.142 231.65 164.438V170H230.102V164.258C230.102 162.98 229.544 162.206 228.338 162.206C227.186 162.206 226.322 163.052 226.322 164.438V170H224.774V161.144H226.232V162.206C226.754 161.36 227.582 160.892 228.77 160.892C230.03 160.892 230.894 161.468 231.326 162.332C231.866 161.486 232.73 160.892 234.044 160.892ZM242.406 160.892C243.846 160.892 244.854 161.234 246.042 162.188L245.196 163.232C244.044 162.35 243.36 162.152 242.406 162.152C241.2 162.152 240.462 162.71 240.462 163.466C240.462 164.24 241.218 164.42 242.838 164.78C245.142 165.302 246.186 165.932 246.186 167.498C246.186 169.136 244.782 170.252 242.64 170.252C241.074 170.252 239.958 169.838 238.554 168.596L239.472 167.588C240.786 168.686 241.578 168.974 242.658 168.974C243.81 168.974 244.674 168.452 244.674 167.57C244.674 166.598 243.612 166.328 242.19 166.022C239.832 165.518 238.968 164.996 238.968 163.52C238.968 161.972 240.354 160.892 242.406 160.892ZM254.845 170.288C253.117 170.288 251.677 169.568 251.677 167.804C251.677 165.734 253.585 165.122 255.799 164.726L257.779 164.366V163.916C257.779 162.8 256.933 162.17 255.709 162.17C254.575 162.17 253.837 162.602 252.793 163.664L251.803 162.782C252.901 161.486 254.125 160.892 255.655 160.892C257.995 160.892 259.255 162.116 259.255 163.844V170H257.851V168.902C257.257 169.802 256.177 170.288 254.845 170.288ZM253.189 167.75C253.189 168.56 253.873 169.01 255.007 169.01C256.537 169.01 257.779 168.146 257.779 166.688V165.518L256.159 165.842C254.431 166.202 253.189 166.526 253.189 167.75ZM265.901 160.892C268.061 160.892 269.069 162.278 269.069 163.934V170H267.521V164.42C267.521 162.962 266.801 162.206 265.487 162.206C264.209 162.206 263.201 163.196 263.201 164.51V170H261.653V161.144H263.111V162.278C263.705 161.36 264.713 160.892 265.901 160.892ZM274.864 170.234C272.596 170.234 270.958 168.38 270.958 165.572C270.958 162.764 272.632 160.91 274.9 160.91C276.232 160.91 277.186 161.432 277.798 162.332V157.22H279.346V170H277.888V168.632C277.276 169.64 276.268 170.234 274.864 170.234ZM272.542 165.572C272.542 167.57 273.532 168.92 275.098 168.92C276.7 168.92 277.852 167.678 277.852 165.572C277.852 163.466 276.7 162.242 275.098 162.242C273.568 162.242 272.542 163.574 272.542 165.572ZM292.141 163.52C291.151 162.458 290.449 162.188 289.585 162.188C287.767 162.188 286.885 163.844 286.885 165.572C286.885 167.3 287.767 168.938 289.603 168.938C290.557 168.938 291.205 168.596 292.249 167.462L293.275 168.326C292.087 169.784 291.043 170.252 289.603 170.252C286.993 170.252 285.301 168.416 285.301 165.572C285.301 162.746 287.047 160.892 289.603 160.892C291.061 160.892 292.069 161.342 293.149 162.566L292.141 163.52ZM298.517 160.892C301.091 160.892 302.891 162.8 302.891 165.572C302.891 168.344 301.091 170.252 298.517 170.252C295.925 170.252 294.125 168.344 294.125 165.572C294.125 162.8 295.925 160.892 298.517 160.892ZM295.709 165.572C295.709 167.57 296.807 168.956 298.517 168.956C300.227 168.956 301.307 167.57 301.307 165.572C301.307 163.574 300.227 162.188 298.517 162.188C296.807 162.188 295.709 163.574 295.709 165.572ZM309.003 160.892C311.163 160.892 312.171 162.278 312.171 163.934V170H310.623V164.42C310.623 162.962 309.903 162.206 308.589 162.206C307.311 162.206 306.303 163.196 306.303 164.51V170H304.755V161.144H306.213V162.278C306.807 161.36 307.815 160.892 309.003 160.892ZM317.965 170.234C315.697 170.234 314.059 168.38 314.059 165.572C314.059 162.764 315.733 160.91 318.001 160.91C319.333 160.91 320.287 161.432 320.899 162.332V157.22H322.447V170H320.989V168.632C320.377 169.64 319.369 170.234 317.965 170.234ZM315.643 165.572C315.643 167.57 316.633 168.92 318.199 168.92C319.801 168.92 320.953 167.678 320.953 165.572C320.953 163.466 319.801 162.242 318.199 162.242C316.669 162.242 315.643 163.574 315.643 165.572ZM326.412 161.144V170H324.864V161.144H326.412ZM324.864 159.398V157.544H326.412V159.398H324.864ZM331.141 167.768C331.141 168.56 331.447 168.848 332.185 168.848C332.509 168.848 332.869 168.794 333.463 168.632L333.697 169.856C333.049 170.09 332.401 170.162 331.879 170.162C330.187 170.162 329.593 169.352 329.593 167.948V162.314H327.937V161.144H329.593V158.174H331.141V161.144H333.535V162.314H331.141V167.768ZM336.783 161.144V170H335.235V161.144H336.783ZM335.235 159.398V157.544H336.783V159.398H335.235ZM343.042 160.892C345.616 160.892 347.416 162.8 347.416 165.572C347.416 168.344 345.616 170.252 343.042 170.252C340.45 170.252 338.65 168.344 338.65 165.572C338.65 162.8 340.45 160.892 343.042 160.892ZM340.234 165.572C340.234 167.57 341.332 168.956 343.042 168.956C344.752 168.956 345.832 167.57 345.832 165.572C345.832 163.574 344.752 162.188 343.042 162.188C341.332 162.188 340.234 163.574 340.234 165.572ZM353.528 160.892C355.688 160.892 356.696 162.278 356.696 163.934V170H355.148V164.42C355.148 162.962 354.428 162.206 353.114 162.206C351.836 162.206 350.828 163.196 350.828 164.51V170H349.28V161.144H350.738V162.278C351.332 161.36 352.34 160.892 353.528 160.892ZM362.113 160.892C363.553 160.892 364.561 161.234 365.749 162.188L364.903 163.232C363.751 162.35 363.067 162.152 362.113 162.152C360.907 162.152 360.169 162.71 360.169 163.466C360.169 164.24 360.925 164.42 362.545 164.78C364.849 165.302 365.893 165.932 365.893 167.498C365.893 169.136 364.489 170.252 362.347 170.252C360.781 170.252 359.665 169.838 358.261 168.596L359.179 167.588C360.493 168.686 361.285 168.974 362.365 168.974C363.517 168.974 364.381 168.452 364.381 167.57C364.381 166.598 363.319 166.328 361.897 166.022C359.539 165.518 358.675 164.996 358.675 163.52C358.675 161.972 360.061 160.892 362.113 160.892Z" fill="#131416"/>
<path d="M32 216C32 213.791 33.7909 212 36 212H136C138.209 212 140 213.791 140 216V256C140 258.209 138.209 260 136 260H36C33.7909 260 32 258.209 32 256V216Z" fill="#0060AD"/>
<path d="M61.742 228.932C63.866 228.932 65.216 229.508 66.854 230.912L65.378 232.676C63.902 231.434 63.074 231.11 61.688 231.11C60.248 231.11 59.348 231.794 59.348 232.676C59.348 233.684 60.284 233.918 62.462 234.422C65.558 235.16 67.016 235.934 67.016 238.148C67.016 240.578 65.09 242.306 61.958 242.306C59.69 242.306 58.196 241.658 56.288 239.948L57.8 238.166C59.51 239.66 60.482 240.11 62.012 240.11C63.47 240.11 64.514 239.48 64.514 238.346C64.514 237.158 63.254 237.014 61.274 236.546C57.872 235.718 56.864 234.764 56.864 232.748C56.864 230.606 58.808 228.932 61.742 228.932ZM76.7803 232.802V242H74.6383V241.028C74.1883 241.766 73.3243 242.288 71.9383 242.288C69.6523 242.288 68.6803 241.046 68.6803 239.372V232.802H71.0203V238.724C71.0203 239.66 71.5063 240.254 72.5503 240.254C73.6843 240.254 74.4403 239.624 74.4403 238.346V232.802H76.7803ZM83.9345 242.252C82.5665 242.252 81.6305 241.73 81.0185 240.83V242H78.8405V229.22H81.1805V233.774C81.7925 233 82.6925 232.532 83.9525 232.532C86.2925 232.532 88.0205 234.422 88.0205 237.392C88.0205 240.38 86.2745 242.252 83.9345 242.252ZM81.0905 237.392C81.0905 239.192 82.0985 240.218 83.3945 240.218C84.7265 240.218 85.6445 239.138 85.6445 237.392C85.6445 235.664 84.7985 234.548 83.4125 234.548C82.0625 234.548 81.0905 235.628 81.0905 237.392ZM99.7318 232.496C101.712 232.496 102.792 233.702 102.792 235.574V242H100.452V236.276C100.452 235.25 100.056 234.512 98.9938 234.512C97.9318 234.512 97.3738 235.304 97.3738 236.348V242H95.0338V236.276C95.0338 235.25 94.6558 234.512 93.5758 234.512C92.5138 234.512 91.9558 235.322 91.9558 236.348V242H89.6158V232.802H91.7938V233.828C92.2798 233.036 93.1258 232.496 94.4218 232.496C95.6278 232.496 96.4918 233 96.9778 233.846C97.5178 233.072 98.3818 232.496 99.7318 232.496ZM107.179 232.802V242H104.839V232.802H107.179ZM104.839 231.416V229.22H107.179V231.416H104.839ZM112.491 239.336C112.491 239.984 112.797 240.182 113.409 240.182C113.679 240.182 113.967 240.164 114.561 240.02L114.831 241.874C114.021 242.144 113.355 242.216 112.761 242.216C110.889 242.216 110.151 241.334 110.151 239.624V234.584H108.513V232.802H110.151V229.958H112.491V232.802H114.687V234.584H112.491V239.336Z" fill="white"/>
</svg>
